<?xml version="1.0" encoding="utf-8"?>
<!-- Generator: Adobe Illustrator 24.2.3, SVG Export Plug-In . SVG Version: 6.00 Build 0)  -->
<svg version="1.1" id="Contours" xmlns="http://www.w3.org/2000/svg" xmlns:xlink="http://www.w3.org/1999/xlink" x="0px" y="0px"
	 viewBox="0 0 959.4 829.6" style="enable-background:new 0 0 959.4 829.6;" xml:space="preserve">
<style type="text/css">
	.st0{fill:#FFF2F1;}
</style>
<desc  xmlns:shape="http://adobe.com/products/shape"></desc>
<path class="st0" d="M354,393.8c-5.3-5.7-1.6-13.1-3.9-19.3c-3.1-8.3-4.9-17-11.5-23.8c-2.3-2.3-2.3-7.1-2.8-10.7
	c-1.2-10.1-2-20.2-3.1-30.3c-0.8-7.4-2.1-14.8-2.9-22.2c-0.2-2.4,0.9-4.8,0.9-7.1c-0.2-6.8-0.7-13.5-0.9-20.3
	c-0.2-5.5,0.2-11.1-0.1-16.6c-0.4-8.1-1.3-16.2-2-24.2c0-0.5-0.2-0.9-0.3-1.4c-0.4,0.4-0.9,0.7-1.4,1.1c-7,5.2-13.9,10.6-21,15.7
	c-1.3,0.9-3.4,1.2-5,1c-7.6-1.1-14.1,1.5-20.5,4.9c-5,2.5-4.6,7.7-5.7,12c-1.2,4.9-2,9.8-3.1,14.7c-0.1,0.8-0.5,1.8-1.1,2
	c-6.6,2.9-6.9,9-6.7,14.6c0.3,7.3-1.8,13.1-6.9,18.2c-0.6,0.5-0.9,1.2-1.2,1.9c-6.1,12.2-13.2,24-17.6,36.7
	c-2.7,7.7-5.8,14.9-10.6,21.1c-10.1,13.1-21.3,25.2-36.4,33c-3.9,2.1-7.8,4.5-11.6,7c-4.8,3.1-10,4-15.8,4.2
	c-4.5,0.1-8.9,2.5-13.4,3.7c-9.8,2.6-19.6,1.9-29.3-1.1c-7.1-2.2-14.2-4.4-21.1-6.9c-3.4-1.2-6.5-3.1-9.5-5
	c-8.4-5.1-17.1-9.9-24.8-15.9c-4.2-3.3-6.7-8.7-9.9-13.2c-1.9-2.6-4.4-5-5.3-7.8c-0.9-3.4-1.2-7.4-0.3-10.8
	c1.9-7.9,7.9-11.7,15.7-12.7c1.5-0.2,4.4,0.9,4.6,1.9c1.8,8.3,8.4,12.5,13.9,17.7c6.4,6,13.8,10.4,21.4,14.5
	c7.9,4.4,16,7.8,25.1,8.4c2.2,0.1,4.4,0.8,6.6,0.9c17,0.5,31.8-5.2,44.8-16c10.8-9,20.4-18.8,25.6-32.3c2.6-6.6,7.9-12.1,10.7-18.6
	c6.2-14.6,11.7-29.5,17.1-44.4c3.6-10.2,6.8-20.5,9.7-31c1.7-5.8,2.3-12,3.3-18.1c1.2-6.9-2.8-12.6-5.5-18.2
	c-3.8-7.8-2.9-16.1-4.5-24.1c-0.5-2.9-2.1-5.9-1.8-8.7c1-11.5,2.5-22.9,3.8-34.3c0.5-3.9,1-7.8,1-11.6c0-10.9,3.3-21.2,6-31.5
	c3.8-14.8,7.1-29.7,11.2-44.4c2.4-8.8,5.1-17.6,9.2-25.7c2-3.9,7.3-6.1,11.2-9c1-0.7,2.5-0.8,3.3-1.6c0.9-0.8,1.3-2.1,1.9-3.2
	c0.4,1.5,0.9,2.9,1.2,4.4c0.2,0.8-0.1,1.7,0.1,2.5c0.2,0.9,0.7,1.7,1.1,2.5c0.6-0.7,1.6-1.3,1.8-2.1c0.5-2.3,0.6-4.7,1.1-7.1
	c0.2-0.8,0.8-1.6,1.3-2.5c0.5,0.9,1.6,1.8,1.6,2.7c-0.1,3-0.7,6-0.9,9c0,0.8,0.6,1.6,0.9,2.3c0.7-0.7,1.7-1.4,2-2.3
	c0.6-2.1,0.8-4.3,1.4-6.4c0.2-0.6,1.3-0.8,2-1.1c0.2,0.6,0.6,1.3,0.6,2c0.9,9.6-0.4,19-2.8,28.4c-1.5,5.9-1.7,12.1-2.1,18.2
	c-1.1,15.4-1.9,30.8-3.1,46.2c-1.1,12.8-2.7,25.6-3.9,38.3c-0.8,7.6-1.2,15.3-2.1,22.9c-1.1,8.4-2.8,16.8-3.8,25.3
	c-0.5,4.1-1.1,8.9,0.6,12.4c2.7,5.6,11.2,5.5,17.4,0.4c9.1-7.5,17.5-15.5,23-26.3c3.6-7.1,8.5-13.4,12.6-20.3c1.3-2.2,1.7-5,2.2-7.5
	c1.8-8.5,3.8-16.9,4.9-25.5c0.9-6.5,6.1-8.6,10.5-11.6c0.8-0.6,2.1-0.6,3-1.1c4.3-2.2,6.1-0.6,6.8,3.9c0.1,1.1,1.6,2,2.5,3
	c0.4-1.3,1.1-2.6,1.3-3.9c0.1-1-1-2.1-0.9-3.1c0.2-1.3,1-2.6,1.5-3.9c0.8,1,1.7,1.9,2.4,3c0.6,0.9,0.7,2.4,1.4,2.8
	c8.6,4.7,5.8,11.7,4,18.5c-0.3,0.9-0.3,1.9-0.3,2.9c-0.4,5.2,0.5,10.2-2.6,15.5c-2.2,3.6-0.9,9.1-1.5,13.8
	c-1.1,9.3-2.5,18.6-3.8,27.9c-0.1,1.3-0.1,2.6-0.2,3.9c-0.6,8.4-1.4,16.8-1.9,25.2c-0.1,2.3,0.9,4.7,0.9,7.1
	c-0.1,3.7-1.5,7.5-0.8,11c2.2,11-1.3,22.5,2.8,33.3c0.5,1.3-0.1,3,0.1,4.5c0.9,7.4,2.1,14.8,2.9,22.3c0.4,3.8-0.4,7.8,0.1,11.6
	c1.9,13.2,3.6,26.4,6.3,39.4c2.2,10.3,5.7,20.3,8.7,30.4c0.9,3.1,1.9,6.2,3,9.2c0.3,0.9,1.2,2,1.9,2.2c8.3,1.9,7.6,9.3,8.8,15.2
	c0.5,2.5-1.4,5.6-2.3,8.3c-0.2,0.5-1.4,1-2,0.9c-2.1-0.1-4.1-0.8-6.1-0.8c-4.5,0.1-4.2-1.7-2.3-4.6c0.4-0.7,0.3-1.6,0.5-2.4
	c-0.7,0.3-1.5,0.5-2.1,1c-3.4,3.1-3.3,5.9,0.3,9.3c1.1,1,2,2.4,2.8,3.8c0.2,0.4-0.7,1.8-0.7,1.8c-4.4-1.7-10,0.4-13.3-4
	c-3.4-4.5-6.4-9.4-9.6-14.1C360,401.6,357.1,397.7,354,393.8 M334.8,305.3c1.3,1.2,2.9,3.6,2.9-0.7c0.1-4.7,0.1-9.4,0-14
	c0-1.7-0.4-3.5-1-5.1c-0.3-0.7-1.4-1.2-2.1-1.7c-0.3,0.8-0.8,1.6-0.8,2.4C334,292.2,334.4,298.2,334.8,305.3 M348.8,307.2
	c-1.8,0.2-3.6,0.3-5.3,0.6c-0.2,0.1-0.3,1.2-0.4,1.8C345,309.2,346.9,308.7,348.8,307.2 M354.3,308.8c-0.5,0.9-0.9,1.8-1.3,2.7
	c1.3-0.5,2.9-0.8,3.9-1.6c0.6-0.5,0.4-1.9,0.6-2.9C356.6,307.4,355.7,307.8,354.3,308.8 M304.8,232.3c-0.6-0.5-1.2-0.9-1.8-1.3
	c-0.2,0.6-0.5,1.2-0.7,1.8C302.9,232.8,303.6,232.8,304.8,232.3 M358.8,178.2c0.3-0.1,0.6-0.3,1-0.4
	C359.4,177.6,359.1,177.4,358.8,178.2"/>
<path class="st0" d="M679.8,789.8c-0.4,1.6-0.4,3.1-1.1,4c-4.8,6.4-9.4,12.9-14.6,19c-6.8,8-17,10.1-26.2,13.8
	c-7.5,3-14.9-0.3-21.7-3.2c-3.7-1.5-6.4-5.2-9.9-7.4c-1.8-1.2-4.3-1.9-6.5-2.2c-4.4-0.5-6.2-3.5-5.9-7.1c0.5-5.9-1.9-9.5-6.9-11.9
	c-2.5-1.2-3-2.3-1.2-4.8c0.9-1.2,0.5-3.3,0.8-5c0.1-0.7,0.3-1.4,0.5-2.1c0.5,0.5,1.2,0.8,1.7,1.4c7.2,9.8,16.6,16.3,28.7,18.3
	c3.9,0.7,8.8,1.4,11.8-0.4c7-4.2,13.7-9.1,16.5-17.7c2.9-8.8,2.6-17,0.6-26.2s-6.4-16.8-10.5-24.7c-2.6-5-5.8-9.7-9.3-14.2
	c-1.6-2.1-4.6-3.2-6.7-5.1c-2.2-2.1-3.9-4.7-6.2-6.8c-3.1-2.9-6.3-5.8-10-8c-1.4-0.9-4.1,0.1-6.2,0.2c-12.7,0.7-25.5,1-37.4-4.1
	c-7.4-3.1-14.5-7.1-21.3-11.5c-6.5-4.1-9.1-4.7-15.2,0.4c-8.2,6.8-17.8,9.8-28.3,10.2c-8.1,0.4-16.3,1-24.5,0.9
	c-4.4,0-8.8-1.2-13.2-1.8c-0.6-0.1-1.2,0.3-1.8,0.4c0.5,0.2,1.1,0.5,1.6,0.7c0.2,0.1,0.2,0.3,0.4,0.4c2,1.6,4,3.2,6,4.8
	c-2.5-0.4-5-1.4-7.4-1.1c-2.5,0.3-5.7,1.2-7.1,2.9c-6.6,8.7-16.8,11-25.7,15.4c-9.7,4.7-19.7,8.8-29.7,12.7
	c-5.7,2.1-11.8,3-17.6,4.8c-6.1,1.9-12.3,4.1-18.3,6.3c-9.7,3.5-19.5,6-29.9,3.7c-4.4-1-11.9-9.3-12.4-13.7
	c-0.4-4.1,2.4-6.1,5.4-7.2c6.2-2.4,12.6-4.4,19-6.1c9.5-2.6,14.4-9.2,19-17.6c4.2-7.8,6.7-15.9,9-24.3c1.7-5.8,3.7-11.5,5.2-17.3
	c0.4-1.7-0.6-3.6-0.5-5.4c0.2-4.1,1-8.1,0.9-12.1c-0.4-9.4-1-18.8-2.1-28.2c-0.5-3.5-2.7-6.9-4.4-10.1c-1.7-3.3-5.2-4-8.1-2.9
	c-9.3,3.2-18.4,7.1-27.6,10.5c-1.9,0.7-4.1,0.3-6.1,0.5c0.1-2.3,0.2-4.6,0.6-6.8c0.1-0.8,1.4-1.4,1.7-2.3c0.2-0.8-0.1-1.9-0.2-2.8
	c-0.8,0.3-1.9,0.4-2.4,1c-3.6,3.7-7,7.6-10.5,11.4c-0.5,0.5-1,0.8-1.4,1.3c0-0.7-0.1-1.6,0.2-2.1c2.9-4.2,4.7-8.1,1.6-13.4
	c-0.8-1.3,1.1-5.4,2.9-6.9c5.3-4.2,10.7-8.6,16.8-11.3c7.6-3.4,15.7-5.7,23.9-7.4c11.2-2.4,21.8-0.7,30.8,7.3
	c0.6,0.5,1.1,1.5,1.8,1.7c8.1,1.8,8.8,9.1,11.6,15c8.6,18.6,7.4,38.5,6.7,58.1c-0.3,7.8-3.1,15.5-5.5,23.1c-2,6.8-5.1,13.2-7.6,19.9
	c-0.4,1.1-0.4,2.4-0.6,3.6c1.2-0.2,2.4-0.2,3.5-0.6c9.6-2.9,19.1-5.9,28.7-9c3.1-0.9,6.5-1.4,9.2-3.1c5.4-3.3,10.4-2.8,15.6,0.1
	c0.8,0.5,1.7,1,2.6,1c2.1,0,4.2-0.2,6.3-0.4c-1.4-0.8-2.8-1.8-4.3-2.4c-9.6-3.8-16.3-10.9-21.2-19.4c-3.2-5.6-3.5-12.1-1.5-18.6
	c2.3-7.1,3.2-14.9,8.8-20.3c6.3-6,12.7-12.1,20-16.7c8.6-5.4,18-9.6,27.4-13.5c3.7-1.6,8.5-2.1,12.4-1.3c2.8,0.6,6.2,3.8,7.1,6.6
	c1.1,3.3,0.6,7.1-2.5,10.8c-5.2,6.1-12.6,7.5-18.9,11.3c-8.6,5.2-18.1,8.9-25,17c-8.6,10.1-5.9,24.7,6.4,29.5
	c6,2.4,13.5,2.8,20.7-0.3c8.1-3.5,16.2-6.4,21.7-13.8c1.1-1.4,3-3.1,2.8-4.3c-1-5.2,2.3-7.4,5.6-10.3c5-4.2,4.8-7,0.3-11.6
	c-2.1-2.2-4-4.6-6-7c-1.2-1.6,0.5-8.2,2.4-8.8c0.3-0.1,1.1,0.2,1.4,0.6c0.6,0.9,1,2.3,1.8,2.7c1.9,0.7,4.1,0.9,6.1,1.3
	c-1-1.4-2-2.8-3.1-4.2c-0.5-0.7-1.2-1.2-1.8-1.8c-0.4-0.3-0.9-0.5-1.4-0.7c0.4-0.1,0.9-0.3,1.3-0.3c3-0.1,6.2-0.6,9,0.1
	c5.7,1.3,7,6.9,9.6,11.2c0.7,1.3,1.5,2.4,2.2,3.7c0.3-1.5,0.8-2.9,0.7-4.3c-0.2-3.5-0.8-7-1.1-10.5c-0.1-0.4,0.2-0.8,0.3-1.2
	c1.6,0.7,3.8,1.1,4.5,2.3c2.5,4.7,4.8,9.6,6.7,14.6c1.6,4.1,2.6,8.4,3.6,12.6c0.4,1.4,0.1,3.1,0,4.6c0,3.1-1.3,7,0.2,9.1
	c4.3,6.2,9,12.5,17.5,13.8c3.7,0.6,7.2,2.2,10.8,2.8c1.9,0.3,4.7,0.1,5.8-1.1c0.9-0.9,0.3-3.8-0.3-5.6c-2.1-6-3.5-11.9-4.2-18.3
	c-2.1-17.9,4.9-32.8,13.3-47.3c7.3-12.6,19.3-19.1,32.6-23.5c4.6-1.5,8.5,1.6,8.3,6.6c-0.1,2.8-1,5.6-1.5,8.4c0,0.3,0.1,0.6,0.2,1
	c0.7-0.2,1.5-0.2,2.3-0.5c0.9-0.4,1.8-0.9,2.7-1.4c0.1,0.7,0.6,1.6,0.3,1.9c-0.8,0.8-2,2-2.9,1.8c-2.9-0.4-3.1,1.6-4.1,3.4
	c-1.1,2.1-2.5,4.8-4.4,5.5c-12.4,4.9-17.8,15.2-20.3,26.8c-2.5,12.1,0.6,24,6.7,34.8c5.3,9.3,10.5,18.7,16.6,27.5
	c6.7,9.6,14.4,18.4,21.5,27.7c9.8,13,17.3,27.5,20.6,43.4C681.2,771.2,679.8,780.4,679.8,789.8 M620.8,710.3c0.3,0,0.6,0,0.9,0
	c-0.3-0.2-0.6-0.4-0.9-1c-0.4-0.1-0.7-0.1-1-0.1C620.1,709.4,620.4,709.6,620.8,710.3 M656.8,767.3c0.1,1.5,0.3,3,0.5,4.5
	c0.5-0.2,0.9-0.3,1.3-0.4C658.2,769.8,657.7,768.3,656.8,767.3"/>
<path class="st0" d="M589.8,491.8c0.3,4.1,0.6,8.3,1,12.5c0,0.2,1.3,0.6,1.4,0.4c1.2-1.6,2.5-3.2,3.5-5c2.3-4,6.3-4.5,10.2-4.9
	c2.5-0.2,4.4-0.2,1.5-3c-0.4-0.3-0.2-1.3-0.2-2c0.7,0,1.4,0,2.1,0c2.8-0.1,5.6,0,8.4-0.1c1,0,1.9-0.4,2.9-0.6
	c-0.8-0.8-1.6-1.7-2.6-2.3c-0.7-0.5-1.8-0.5-2.6-0.9c-0.6-0.4-1-1.2-1.6-1.7c0.9-0.5,1.8-1.5,2.5-1.4c5.4,1.2,11,2.3,16.3,4
	c7.5,2.4,14.2,6.7,22.2,8.1c1.2,0.2,1.9,2.9,3,4.4c0.5,0.8,1.2,1.6,1.8,2.5c0.7-0.8,1.4-1.5,1.9-2.4c0.3-0.5,0.2-1.3,0.2-1.9
	c0.7-13.1,1.5-26.1,1.9-39.2c0.3-5.5-0.1-11-0.3-16.5c0-0.3,0-0.7-0.1-1c0.9,0.2,2.4,0.1,2.7,0.7c1.7,3.2,3.3,6.6,4.8,10
	c0.4,0.8-0.3,2.1,0.1,2.9c0.5,1,1.7,1.6,2.5,2.4c0.5-0.8,1.4-1.7,1.4-2.4c-0.2-4.2-0.7-8.4-0.9-12.6c-0.1-1.7,0.5-3.4,0.7-5
	c1.1,1,2.3,2,3.2,3.2c2.1,2.8,4,5.7,6.1,8.5c0.4,0.6,1.3,0.8,2,1.3c0.1-0.7,0.4-1.5,0.3-2.1c-0.4-4-0.9-8-1.3-11.9
	c-0.1-0.6,0.2-1.3,0.3-1.9c0.5,0.4,1.1,0.6,1.4,1.1c1.5,2.6,3,5.1,4.2,7.8c1.9,4.5,3.6,9.2,5.3,13.8c0.7,1.5,1.7,3.1,1.7,4.8
	c0.1,15.7,0.4,31.5-0.1,47.3c-0.3,10.4-1.9,20.8-2.8,31.2c-0.1,1.2-0.2,2.4,0,3.5c1.2,9.5-1.4,18.7-1.6,27.9
	c-0.1,5.7,0.2,10.7-2.2,16.1c-1.4,3.3,0,7.7-0.3,11.6c-0.5,8.4-1.3,16.8-2,25.1c-0.3,3.7-0.7,7.4-0.9,11.1c-0.1,0.9,0.5,1.7,0.7,2.6
	c0.7-0.5,1.5-0.8,2-1.3c8-9.3,16-18.6,23.8-28c0.9-1.1,0.7-3.3,0.6-5c-0.2-4.4-0.7-8.7,2.8-12.3c0.7-0.8,0.5-2.5,1.1-3.5
	c0.9-1.4,2.2-2.7,3.4-3.9c0.6-0.6,2-0.8,2.3-1.4c4.6-9.8,13.9-14.2,22.3-19.6c7-4.5,14.5-8.3,21.8-12.4c0.9-0.5,2.3-0.9,3.2-0.6
	c4.9,1.9,10.1,3.4,14.4,6.2c2.7,1.9,3.5,1.2,5.4-0.5c5.1-4.7,10.1-9.8,15.8-13.6c6.5-4.4,14-5.9,22-5.2c4.6,0.4,9.3-0.1,14,0.1
	c4.4,0.1,7.8,3.7,6.2,7.6c-2.3,5.3,1.1,8.1,3.7,11.2c6.3,7.8,12.9,15.4,19.7,22.8c4.1,4.4,8.3,9,13.4,12.1c3.7,2.2,1.6,4.8,2.4,7.1
	c-1.4,0.4-2.8,1.1-4.2,1.1c-2.6-0.1-4.5,0-4,3.5c0.1,0.7-1.3,2.3-2.2,2.4c-3.5,0.6-7.5,0-10.7,1.3c-5.5,2.2-9.7-1.1-14.4-2.3
	c-1.5-0.3-2.7-2.1-4.2-2.9c-2.3-1.3-4.9-3-6.5,0.7c-3.7,8.4-9.8,13.5-18.9,15.4c-5.4,1.2-10.6,3.5-16,4.9
	c-4.4,1.1-19.7-6.3-21.7-10.2c-1.5-3-3.3-6-4.1-9.3c-1.2-4.4-4.4-5.3-8.1-6c-3.8-0.7-3.4,0-7.4,2.2c-5.2,2.8-3,4.9-0.3,7.1
	c9.9,8.3,18.5,18.3,30.4,24.2c3.4,1.7,7,3.1,10.5,4.8c3.9,2,6.1,7.6,4.8,11.6c-2.7,7.8-9.4,12.4-17.5,12.7c-6.4,0.3-12.1-1.5-17.8-4
	c-7.9-3.5-16-6.5-23.8-10.1c-3-1.4-5.5-3.8-8.2-5.7c-1.3-0.9-2.4-2.2-3.8-2.7c-2.8-1.1-4.6-2.4-4-5.8c0.1-1.1-0.8-2.3-1.2-3.5
	c-0.9,0.8-2.2,1.4-2.7,2.4c-3.9,8.5-9.1,16.2-15.4,23.1c-2,2.2-4.7,3.9-6.9,6.1c-2.6,2.6-5.1,5.4-7.4,8.3c-2.7,3.7-5.1,6.8-10.6,7.1
	s-10.8,2.6-16.3,3.7c-3.7,0.8-6.7-0.2-8.2-4.2c-0.5-1.2-1.4-3-2.5-3.3c-10.1-3.2-10-12.8-11.4-20.1c-2.4-13.1-0.9-26.6,1.6-39.8
	c0.4-2.2,0-4.6,0.1-6.9c0.9-19.6,2-39.2,2.9-58.8c0.3-5.5,0.1-5.5-5.5-3.9c-4.3,1.4-8.5,3.6-12.9,3.8c-17.4,0.6-35.1,1.4-48.5-13.2
	c-3.7-4.1-7.2-8.3-10.5-12.7c-0.8-1-0.6-2.7-0.9-4c1,0.4,1.9,1,2.9,1.1c1.5,0.1,3-0.3,4.4-0.4c-1-0.7-1.9-1.7-3-2.1
	c-8-2.9-10.7-10.5-6.2-17.7c0.2-0.4,0.4-0.9,0.4-1.4c-0.1-5.7,5.2-8.6,6.8-13.6c0.6-1.8,2.6-3.7,4.4-4.6c1.1-0.5,4.1,0.5,4.5,1.5
	c0.9,2.1,1,4.7,0.8,7.1c-0.2,2.1-1.1,4.2-1.7,6.3c-0.2,1-0.5,2-0.8,3c-0.9-0.7-1.8-1.4-2.9-2.3c1.1-3.7,2.5-7.1,3.7-10.6
	c0.2-0.6-0.3-1.4-0.5-2.1c-0.7,0.3-1.7,0.5-2,1.1c-3.6,6.8-7.2,13.6-10.3,20.7c-0.7,1.5,0.6,3.9,1.2,5.9c0.1,0.5,1.2,0.8,1.9,1.3
	c0.2-0.7,0.7-1.4,0.7-2c0.1-1.9-0.2-3.7,0.1-5.5C585.3,496.8,585.2,492.9,589.8,491.8 M596.8,509.2c-0.4,0-0.7,0-1,0
	c0.3,0.2,0.6,0.4,1,1.1c9.3,11.3,21.5,12.1,34.7,9.5c3.8-0.8,3.6-3,1-4.6c-4.4-2.8-9.2-5.1-13.9-7.4c-0.9-0.4-2.2-0.3-3.2-0.1
	C609.2,508.3,603,509,596.8,509.2 M802.8,591.3c4,3.8,8.9,3.2,14.7-1.7c2.9-2.5,6-4.7,9-7.1c2.6-2.2,3.3-4.4,1-7.6
	c-2.3-3.4-4.5-7.1-5.9-11c-1.4-3.7-2.9-3.6-5.3-1.2c-6.4,6.5-11.6,13.8-14.4,22.5C801.5,586.7,802.4,588.6,802.8,591.3 M679.8,602.3
	c-0.4-0.7-0.6-1.5-1.1-2.1c-0.7-0.9-1.5-1.6-2.3-2.4c-0.2,0.8-0.9,2.1-0.6,2.4C676.8,601.3,678.1,601.9,679.8,602.3"/>
<path class="st0" d="M324.8,666.8c2.1-2,4.3-4.1,6.5-6c0.5-0.5,1.3-0.7,2-1c0,0.7-0.1,1.4-0.2,2.1c-1.4,6.6-4.5,12.2-9.1,17.1
	c-0.5,0.6-0.7,1.6-1.1,2.4c0.7-0.5,1.5-0.9,2.1-1.5c0.8-0.6,1.4-1.6,2.2-2c0.8-0.4,1.8-0.3,2.7-0.5c0,1,0.3,2.1-0.2,2.8
	c-3.2,4.7-6.2,9.5-9.9,13.8c-5.2,6.4-11.1,12.3-16.4,18.7c-3.8,4.6-7.1,9.6-10.7,14.5c-0.4,0.6-1.1,1.1-1.8,1.5
	c-4.6,3.2-9.4,6.3-14.1,9.5c-5.4,3.7-10.4,8.2-16.3,11c-8.4,4.1-17.2,7.8-26.2,10.2c-5,1.3-10.8,0.3-16-0.8
	c-13.4-2.9-26.6-7.1-38.7-13.9c-8.9-5-18.6-9.2-26.4-15.5c-8.2-6.6-15.6-14.8-21.5-23.4c-6.5-9.5-11.6-20.2-15.9-30.9
	c-2.7-6.5-2.9-14.1-4-21.3c-1.6-10.4-1.1-20.9-4.6-31.1c-1.2-3.7-0.6-8.2-0.4-12.3c0.4-6.5,1.1-12.9,2-19.4
	c1.5-10.1,4.8-19.8,7.8-29.7c5.7-18.8,15.8-35,26.5-51c1.9-3,5.1-5.2,7.6-7.8c5.3-5.6,10.6-11.3,15.9-16.9
	c14.2-15,31.4-25.2,51.4-30.2c7.6-1.9,15.7-2.7,23.6-3.3c6-0.6,12.1-0.4,18.1-0.1c3.3,0.2,6.5,1.2,9.7,2c0.9,0.3,2.2,1.2,2.2,2
	c0.3,2.9-0.1,5.9,3.6,7c-0.1,0.3-0.3,0.9-0.5,0.9c-6,0.1-10.2,4.8-11.5,8.8c-3.2,9.2-10.5,11.4-18.1,14.3
	c-10.2,4-20.3,8.2-30.1,13.1c-4.6,2.3-7.9,7.4-12.6,9.4c-13.4,6-22.9,16.2-32.8,26.4c-4.5,4.7-7.3,10.1-9.9,15.8
	c-1.9,4.1-5.1,7.6-6.8,11.7c-2.7,6.7-5.3,13.6-7,20.6c-2.2,8.5-4.4,17.2-4.9,25.9c-0.9,12.6-0.1,25.2,3.6,37.5
	c1.4,4.7,1.1,9.9,2.3,14.6c1.1,4.6,2.8,9.2,5,13.4c2.9,6,6.4,11.7,9.9,17.4c1.2,1.9,3.4,3.2,5.1,4.8c1.7,1.6,3,3.7,4.9,4.8
	c4.5,2.7,9.3,5.1,13.9,7.5c0.5,0.3,1.4,0.1,1.8,0.4c5.2,4.3,12,5.1,17.7,8c8.8,4.4,17.5,4.7,26.4,2.2c11.2-3.2,22.2-6.8,33.1-10.7
	c2.7-0.9,4.7-3.8,7.2-5.5c6.4-4.2,13.4-7.7,19.3-12.5c6.5-5.3,12-11.8,18-17.8c0.4-0.4,0.3-1.5,0.7-1.6c9.5-2.7,10.7-12.6,16.4-18.5
	c1-1,2.1-1.8,3.1-2.8c-0.1,1.4,0,2.8-0.5,4.1c-1.2,3.8-2.7,7.5-4.4,11.5c-0.3,0.6-0.3,0.9-0.3,1.2
	C324.4,667.4,324.6,667.1,324.8,666.8 M158.8,705.3c0.7,0.1,1.4,0.4,2.1,0.4c0.6,0,1.2-0.2,1.8-0.4c-0.7-0.2-1.3-0.4-2-0.5
	C160.2,704.7,159.7,704.8,158.8,705.3"/>
<path class="st0" d="M561,76c4.3,0.1,8.3,0.4,12.3,0.8c0.5,0,1.2,0.1,1.3,0.4c3.3,6.3,12,9.1,10.5,19c-1.3,8.2,0.7,16.8,0.5,25.2
	c-0.2,9.4-1.3,18.8-1.8,28.1c-0.1,2.9,0.9,5.8,0.9,8.6c0.1,9.2,0.1,18.5,0,27.7c0,2.4-0.4,4.7-1,7.1c-2.7,11.7-1.2,23.4,0.7,35
	c0.2,1.6-0.3,3.3-0.7,5c-1.9,10.1-0.7,20.2,0.8,30.3c1,6.3,0.7,12.8,1.3,19.2c0.4,4.2,1.4,8.4,1.9,12.6c0.2,1.7-0.1,3.5,0.1,5.2
	c0.1,0.6,1.1,1,1.7,1.6c0.4-0.6,1-1,1.2-1.6c4.2-10.1,8.3-20.2,12.4-30.3c0.1-0.2,0.3-0.3,0.4-0.4c8.2-8.1,10.8-20.6,21.1-27
	c2.7-1.7,6-2.5,8.9-3.8c4.1-1.7,9.1-1.5,12.3-5.3c0.5-0.5,2-0.8,2.6-0.4c3.5,2.1,8.7,2.1,9.6,7.5c11.2,6.2,7.8,18.5,11.6,27.7
	c1.6,3.8,1.5,8.3,2.1,12.6c1.7,11.4,3.4,22.9,5,34.4c0.5,3.7,0.3,7.5,1.2,11c0.6,2.3,2.3,4.6,4.1,6.1c3.6,2.9,3.5,5.6,1.5,9.4
	c-1.7,3-2.4,6.6-3.8,9.9c-0.9,2.2-1,4.6-4.6,5.7c-3.1,1-5.7,4.6-7.7,7.5c-1.5,2.2-2.7,2.5-4.5,1.5c-3.1-1.6-3.3,0-3.2,2.4
	c0.1,0.6-0.2,1.2-0.3,1.9c-0.6-0.5-1.4-0.9-1.7-1.5c-0.9-1.7-2-3.5-2.4-5.4c-1.1-5.1-4.8-8.4-7.2-12.5c-2.7-4.5-3.8-10.1-5.3-15.3
	c-1.3-4.5-2.2-9.1-3.1-13.7c-1.4-7.4-2.7-14.9-3.9-22.3c-0.9-5.4-1.3-10.8-2.1-16.2c-0.2-0.9-1.3-1.7-2-2.5
	c-0.7,0.8-1.6,1.5-1.9,2.4c-3.4,9.9-7.1,19.7-10,29.8c-2,6.6-2.6,13.6-4.1,20.3c-1.1,5-2.7,9.9-4.2,14.8c-1.1,3.5-2.3,7-3.5,10.5
	c-0.4,1-1.2,1.8-1.8,2.7c-0.5-0.9-1-1.9-1.4-2.9c-0.5-1.1-0.7-2.4-1-3.5c-0.9,0.8-1.6,1.7-2.5,2.4c-1.3,1-2.8,1.7-3.8,2.9
	c-2.1,2.3-2.5,8.3-6.1,6.8c-6.2-2.6-14.7-2.5-16.9-11.7c-0.7-3.1-4.5-5.4-5.7-8.6c-3-8.2-5.6-16.7-8-25.2
	c-2.8-9.7-5.3-19.4-7.6-29.3c-1-4.5-1.2-9.2-1.4-13.9c-0.8-16.7-1.6-33.4-2-50.1c-0.8-30-1.4-59.9-2-89.8
	c-0.1-5.1,0.9-10.1,0.9-15.1c-0.1-6.6-0.8-13.1-0.9-19.6c0-4.7,0.3-9.4,1-14.1C549.8,83,555,79.3,561,76 M589.8,363.3
	c0.7,0.2,1.5,0.4,2.3,0.6c0.2-2.3,0.3-4.6,0.5-6.8c-0.6,0.7-1.3,1.3-1.8,2.1C590.3,360.2,590.1,361.2,589.8,363.3 M573.8,247.3
	c-1,0.2-1.9,0.5-2.8,0.7c0.1,0.2,0.1,0.5,0.2,0.7C571.9,248.4,572.6,248.1,573.8,247.3"/>
<path class="st0" d="M958.5,341.5c-4.2,1.2-5.6,4.1-4.5,9.1c0.1,0.6-0.7,2-1.1,2.1c-4.7,0.1-9.1,0.8-12.9,4c-1.1,0.9-3,1-4.5,1
	c-7.4,0.1-14.8-0.1-22.2,0.2c-4.1,0.2-8.1,1.9-12.2,1.7c-11.5-0.4-22.9,0.7-34.3,1.7c-7.7,0.7-15,1.7-22.5,3.2
	c-5,1.1-10.1-0.4-15-3.3c-5.4-3.2-9.6-7.4-13.2-12c-2.1-2.7-2.2-7.1-3-10.7c0-0.1,1.4-0.4,2.1-0.8c0.9-0.6,2.2-1.4,2.4-2.3
	c0.2-1-0.5-3.1-1.2-3.3c-6.4-1.5-7.8-7.6-9.3-12c-3.1-9-7.1-17.5-10.5-26.2c-1.8-4.5-1.9-9.5-2.9-14.3c-1.3-6.7-2.8-13.2-3.9-19.9
	c-0.5-3.1-1.8-4.1-5-4.1c-4.3,0.1-8.7-0.4-13-0.9c-1.1-0.2-2-1.5-3-2.3c0.9-0.9,1.7-2,2.7-2.6c2-1.2,4.2-2.2,6.3-3.3
	c-2.6-0.6-5.1-1.2-7.6-1.7c-0.8-0.2-1.6-0.3-2.4-0.5c0.7-0.3,1.5-0.5,1.9-1.1c0.8-1.3,1.9-2.7,2-4.1c0.2-5.2,3.4-7.5,7.8-8.5
	c7-1.5,8.1-6.9,8.1-12.3c0-16.9-0.5-33.8-0.8-50.6c-0.1-2.6-0.2-5.1,0-7.7c0.4-9.1-1.6-17.8-3.7-26.5c-0.3-1.2-0.3-2.5-0.3-3.8
	c-0.1-7.3,0.5-14.5-0.2-21.7c-1-10.2-2.7-20.4-4.7-30.5c-1.4-7.1,0.7-16.3,5.3-18.7c7.8-4.1,15.6-2.9,22.5,3.4
	c6.4,5.9,9.2,13.7,9.9,21.9c1.4,14.9,2.1,29.8,3.2,44.7c0.8,11,2.2,21.9,2.9,32.8c0.4,6.9-0.1,13.8,0.1,20.7c0.1,6,0.8,12,0.9,18
	c0,4.4-0.6,8.8-1,13.1c-0.1,2,0.1,2,2.1,1.5c7.8-2,15.6-3.6,23.4-5.1c3.7-0.7,7.5-0.5,11.1-1.1c4.8-0.7,8.2,1.9,11.7,4.2
	c0.5,0.3-0.7,3.2-1.4,4.8c-0.2,0.3-1.7-0.2-2.4,0.1c-1.5,0.7-3,1.6-4.4,2.5c1.4,0.1,2.9,0.3,4.3,0.4c0.5,0.1,1,0,1.5,0.1
	c1.7,0.1,3.4,0.4,5.2,0.6c-1.4,1.1-2.9,2.1-4.1,3.4c-8.7,9-20.6,8.4-31.5,11c-2.8,0.7-5.7,1.5-8.4,2.5c-6.3,2.1-4.3,7.7-3.9,11.7
	c1.1,9,2.9,18,4.9,26.9c2,8.3,4.7,16.4,6.9,24.6c1.9,7.3,3.4,14.6,5.2,21.9c1.5,5.8,5.4,7.8,11.5,6.2c0.8-0.3,1.5-0.8,2.2-0.8
	c11.5-0.4,23.1-1.1,34.6-0.9c11.7,0.1,23.5,0.6,35.1,2.1c4.3,0.6,9.3-0.7,13.4,4.3c2.3,2.8,9.3,1.7,14.2,2.5
	C955.5,337.2,959.4,336.3,958.5,341.5 M830.3,222.7c0.5-0.3,1-0.7,1.4-1.1c0.1,0-0.2-0.5-0.3-0.7
	C830.8,221.3,830.3,221.8,830.3,222.7"/>
<path class="st0" d="M753,277.5c2.7,12,11.7,18.2,20.8,24.3c7.8,5.2,15.6,10.6,23.4,15.9c0.8,0.5,1.6,1.1,2.4,1.7c-1,0.5-2,1-3,1.3
	c-0.9,0.4-1.9,0.7-2.8,1c0.7,0.6,1.6,1.2,2.3,1.9c0.9,0.9,1.7,1.9,2.5,2.8c-1.3-0.1-2.7-0.2-4-0.3c-0.3-0.1-0.6-0.3-0.9-0.3
	c-2-0.2-3.9-0.5-5.9-0.5c-0.2,0-0.5,0.8-0.7,1.3c1.7,0.7,3.5,1.3,5.1,2.2c1.3,0.6,2.4,1.5,3.6,2.3c-1.3,0.5-2.6,1.7-3.8,1.5
	c-3.9-0.3-7.8-1.1-11.7-1.8c-0.6-0.1-1.6-0.3-1.9,0c-5.4,6.3-10.1,0.3-14.5-1.3c-6.1-2.2-11.2-7-17.3-9c-4-1.3-9.6-0.9-13.5,0.8
	c-5.7,2.5-11.3,5.7-17.5,5.8c-3.2,0.1-6.5-2.1-9.5-3.7c-1.5-0.7-2.3-2.3-3.6-3.4c-3.7-3-10.1-3.2-9.8-10.2
	c0.2-5.1-0.4-10.2,0.2-15.2c0.8-7.2,5.7-11.5,11-16.5c4.3-3.9,8.8-6,13.4-8.7c2.4-1.4,4.6-4.5,5.2-7.2c0.6-3.2,2.1-3.6,4.6-3.5
	c3.4,0.2,5.2-1.1,3.7-4.8c-0.4-0.8-1.1-1.8-0.9-2.6c0.4-1.7,1.2-3.4,1.9-5.1c0.7,1.1,1.6,2.1,2.1,3.2c3.2,7.5,6.4,15.1,9.6,22.5
	c0.3,0.7,1.1,1.3,1.6,1.9c0.2-0.8,0.7-1.5,0.6-2.2c-0.4-3.3-1.1-6.6-1.4-9.9c-0.1-1.3,0.7-2.6,1.2-3.9c0.7,0.8,1.9,1.5,2.2,2.5
	C749.5,265.9,751.1,271.6,753,277.5 M716.8,299.3c0.5,1.1,0.9,3.1,1.7,3.3c2.9,0.7,6,0.7,8.9,1c-0.1-0.4-0.2-0.8-0.4-1.1
	c-1.8-3.4-4.8-4.1-8.3-3.8C718.2,298.8,717.7,298.8,716.8,299.3 M711.3,276.8c0.4-0.5,0.9-1,1.3-1.5c0.4-0.4,0.6-0.9,0.8-1.4
	c-1.2,0.5-2.5,1-3.7,1.4C709.9,275.8,710.1,276.3,711.3,276.8"/>
<path class="st0" d="M549.5,321.8c-2.8,9.5-4.6,19.8-9.4,28.4c-3.2,6-10,10.7-16.1,14.4c-6.1,3.7-13.3,5.9-20.2,7.9
	c-2.1,0.7-5.1-0.9-7.6-1.8c-2.1-0.8-4-2.4-6.2-3.1c-13.2-3.9-19.1-13.2-16.2-26.9c1.9-8.7,4.5-17.4,7-26c0.9-3.1,2.4-6.2,4.4-8.7
	c5.4-6.9,10.8-13.8,17-19.9c5.3-5.4,11.5-9.8,17.4-14.6c0.6-0.5,1.7-0.6,2.7-0.7c3.3-0.4,6.7-0.7,10-1c2.5-0.3,4.4-0.1,5.6,2.9
	c0.8,2.2,2.9,4,4.4,6.1c1.5,2.2-1,10-3.4,12c-3.8,3.3-7.4,6.9-11.1,10.4c-2,1.9-3.8,4.1-6,5.9c-10.3,8.8-16.8,20-20,33.1
	c-0.5,2.1-0.5,4.3-0.7,6.4c2-0.8,3.9-2.2,5.9-2.5c13-2.2,21.7-12.5,33.3-17.4C543.4,325.3,546.3,323.4,549.5,321.8 M535.8,278.3
	c0.2,0.1,0.3,0.2,0.5,0.3C536.3,278.4,536.3,278,535.8,278.3"/>
<path class="st0" d="M411.5,292.5c6.3-10.4,14.8-10.1,22.4-0.4c3.5,4.5,6.9,8.2,6.9,14.3c0.1,12.6,0.7,25.1,0.9,37.7
	c0.2,7.6,0.1,15.1,0.1,22.7c0,5.7,0,11.4-0.1,17.2c0,0.9-0.6,1.8-1,2.8c-1-0.7-2.4-1.1-2.9-2c-1-1.9-1.6-4-2.3-6
	c0.4,2,1.1,4.1,1.2,6.2c0,2.4-0.5,4.7-0.9,7.1c0,0.2-1.8,0.4-1.9,0.2c-0.8-2.2-1.5-4.4-2.1-6.6c-0.2-0.8,0.1-1.7-0.1-2.5
	c-0.3-1.2-0.9-2.3-1.4-3.4c-0.5,1.1-1.4,2.1-1.5,3.3c-0.6,5.8-3.6,7.4-8.9,4.7c-1.9-1.1-3.8-2.7-5.8-2.9c-3.6-0.4-4-2.8-4.3-5.3
	c-1.8-11.9-3.5-23.9-5-35.9c-0.5-4.3,0.7-8.8-0.2-12.9c-2.3-11.1,3.4-21.2,3.3-32C407.9,296.8,410.1,294.8,411.5,292.5"/>
<path class="st0" d="M435,208c-2.8,1.8-5.3,3.4-7.8,4.8c-4.4,2.5-7.8-0.6-11.2-2.4c-2.1-1.1-3.8-2.9-5.6-4.5c-2.5-2.2-3.9-5.2-2-8.1
	c1.8-2.7,1-8.9,7.4-6.5c0.2,0.1,0.9-0.5,0.9-0.7c0.2-4.7,2.3-6.8,6.9-6.8c7.8-0.1,13.2,5.5,12.3,12.1c-0.4,2.7,0.7,5.6,0.8,8.5
	C436.7,205.5,435.8,206.6,435,208"/>
<path class="st0" d="M285,187.5c1.1-7.2,2.5-14.2,3.6-21.2c0.7-3.9,0.8-8,1.2-12c0-0.5,0.4-0.9,0.6-1.4c0.1,0.4,0.4,0.9,0.3,1.3
	c-0.8,6.9-1.6,13.9-2.7,20.8C287.3,179.3,286.2,183.5,285,187.5"/>
<path class="st0" d="M775.5,601c2.1,2.8,4,5.3,5.9,7.9c0.4,0.5,0.6,1.1,1,1.7c-0.7,0.1-1.4,0.3-2,0.1c-3.3-1.3-8.4-6.4-7.7-9.5
	c0.2-0.8,0.3-1.6,0.4-2.3C773.8,599.5,774.5,600.1,775.5,601"/>
<path class="st0" d="M733.8,325.8c2.2-1,3.9-2,5.6-2.9c0,0.2,0.1,0.5,0,0.6c-1.4,1.6-2.7,3.6-4.5,4.4c-2,0.8-4.6,0.4-6.9,0.6
	C729.8,327.6,731.5,326.7,733.8,325.8"/>
<path class="st0" d="M282.8,197.8c0.3-1.2,0.7-1.9,0.9-2.6c0.4-1.5,0.7-3,1.1-4.4c0,1.2,0,2.5,0,3.8c-0.1,1.4,0.1,2.7-0.1,4
	c-0.2,1-0.8,2-1.3,3C283.2,200.5,283,199.4,282.8,197.8"/>
<path class="st0" d="M342.8,366.8c0.1,1.6,0.3,2.7,0.5,3.9c-0.8-0.8-1.8-1.5-2.4-2.4c-0.3-0.6-0.2-1.6-0.1-2.4c0.1-1,0.3-2,0.5-3.1
	C341.8,364,342.3,365.1,342.8,366.8"/>
<path class="st0" d="M353.5,393.8c0.3,1.1,0.3,2.3,0.2,3.4c0,1.2-0.2,2.3-0.3,3.4c-0.6-1.1-1.5-2.3-1.5-3.5
	C351.8,396,352.7,394.9,353.5,393.8"/>
<path class="st0" d="M475,703c-1.1,0.3-2.1,0.7-2.9,0.5c-0.8-0.2-1.5-0.9-2.2-1.4c0.7-0.1,1.5-0.3,2.3-0.3c1.3-0.1,2.6,0,4,0
	C475.9,702.1,475.6,702.4,475,703"/>
<path class="st0" d="M426,393c1.3,0.4,2.3,1.1,3.2,1.8c0.2,0.1,0,0.6,0,1C428,394.9,426.9,394.1,426,393"/>
<path class="st0" d="M570.8,505.8c0-0.9,0-1.2,0-1.5c0.3,0,0.6,0,1,0c-0.3,1.1-0.5,2.2-0.7,3.3C571,507.1,570.9,506.7,570.8,505.8"
	/>
<path class="st0" d="M421.8,396.8c0.3-0.4,0.6-0.2,1,0C422.4,396.9,422.1,397.1,421.8,396.8"/>
<path class="st0" d="M639.8,483.5c-0.7,0.1-1.3-0.1-2-0.3C638.5,483.2,639.1,483.2,639.8,483.5"/>
<path class="st0" d="M639.8,484c0.6-0.1,1.2,0.1,1.9,0.3C641,484.3,640.4,484.3,639.8,484"/>
<path class="st0" d="M587.8,539.8c0.3,0.3,0.1,0.6,0,1C587.6,540.4,587.4,540.1,587.8,539.8"/>
<path d="M377.8,135.8c-0.4,0.3-0.7,0.1-1,0C377.1,135.6,377.4,135.4,377.8,135.8"/>
<path d="M2,776.5c-0.2-0.7-0.1-1.1,0-1.5c0.2,0,0.6,0.1,0.6,0.2C2.5,775.7,2.4,776.2,2,776.5"/>
<path class="st0" d="M550,321.8c-0.1-0.4,0.1-0.7,0.3-1C550.3,321.1,550.3,321.4,550,321.8"/>
<path d="M345,378c0.3,0,0.3,0.4,0.3,0.6C345.2,378.5,345,378.4,345,378"/>
<path class="st0" d="M643.5,486.5c-0.3,0-0.3-0.4-0.3-0.7C643.4,486,643.5,486.1,643.5,486.5"/>
<path d="M285,189c0.3,0,0.3,0.3,0.3,0.6C285.1,189.5,285,189.4,285,189"/>
<path d="M291,147c0.3,0,0.3,0.3,0.4,0.6C291.1,147.5,291,147.4,291,147"/>
<path d="M538,0c0.3,0,0.3,0.3,0.3,0.7C538.1,0.5,538,0.4,538,0"/>
<path d="M0,777.5c0-0.3,0.3-0.3,0.7-0.3C0.5,777.4,0.4,777.5,0,777.5"/>
</svg>
